# xmcd
#
# Track frame offsets:
#	183
#	8133
#	18408
#	29970
#	42120
#	53420
#	67670
#	76633
#	87270
#	97720
#	109558
#	120195
#	131445
#	142970
#	154233
#	163895
#
# Disc length: 2322
#
# Revision: 1
# Processed by: cddbd v1.5.1PL0 Copyright (c) Steve Scherf et al.
# Submitted via: VisiTrax 2.9.5.181 - For more info visit www.synapsa.com
# Normalized: r0:DSETVAR1
#
DISCID=b1091010
DTITLE=Various Artist - Country and Western Superstars - 32 Original American C and W Classics - CD 2
DYEAR=1900
DGENRE=Country
TTITLE0=Johnny Cash - Hey good lookin´
TTITLE1=Patsy Cline - Turn the cards slowly
TTITLE2=Johnny Lee - Candy store
TTITLE3=Stonewall Jackson - Ol´ blue
TTITLE4=Roy Drusky - Blue eyes cryin´ in the rain
TTITLE5=George Jones - Open pit mine
TTITLE6=Kitty Wells - I´ll repossess my heart
TTITLE7=Waylon Jennings - Dream baby
TTITLE8=Faron Young - If you ain´t lovin´
TTITLE9=Patsy Cline - Walkin´ after midnight
TTITLE10=Stonewall Jackson - Waterloo
TTITLE11=Razzy Bailey - 9,999,999 tears
TTITLE12=Willie Nelson - Touch me
TTITLE13=Donna Fargo - Wishful thinking
TTITLE14=Dave Dudley - Last day in the mines
TTITLE15=Frankie Laine - I believe
EXTD=
EXTT0=
EXTT1=
EXTT2=
EXTT3=
EXTT4=
EXTT5=
EXTT6=
EXTT7=
EXTT8=
EXTT9=
EXTT10=
EXTT11=
EXTT12=
EXTT13=
EXTT14=
EXTT15=
PLAYORDER=
